name rise36.2859peak64.2979fall75.1499.mot
datacolumns 19
datarows 32
range 22.08491200000000 22.13658600000000
endheader
time	ground_force1_vx	ground_force1_vy	ground_force1_vz	ground_force1_px	ground_force1_py	ground_force1_pz	ground_force2_vx	ground_force2_vy	ground_force2_vz	ground_force2_px	ground_force2_py	ground_force2_pz	ground_torque1_x	ground_torque1_y	ground_torque1_z	ground_torque2_x	ground_torque2_y	ground_torque2_z	
22.08491200000000	-41.15628300000000	795.49967200000003	52.77565900000000	0.18193700000000	0.00000000000000	0.10125200000000	0.00000000000000	0.00000000000000	0.00000000000000	0.00000000000000	0.00000000000000	0.00000000000000	0.00000000000000	28.84029900000000	0.00000000000000	0.00000000000000	0.00000000000000	0.00000000000000	
22.08658000000000	-41.54124600000000	794.39755700000001	52.63284200000000	0.18109200000000	0.00000000000000	0.10115800000000	0.00000000000000	0.00000000000000	0.00000000000000	0.00000000000000	0.00000000000000	0.00000000000000	0.00000000000000	28.71827400000000	0.00000000000000	0.00000000000000	0.00000000000000	0.00000000000000	
22.08825300000000	-41.94477700000000	793.19595600000002	52.47619400000000	0.18022500000000	0.00000000000000	0.10106400000000	0.00000000000000	0.00000000000000	0.00000000000000	0.00000000000000	0.00000000000000	0.00000000000000	0.00000000000000	28.59464200000000	0.00000000000000	0.00000000000000	0.00000000000000	0.00000000000000	
22.08991700000000	-42.36724100000000	791.89253199999996	52.30529600000000	0.17933600000000	0.00000000000000	0.10096900000000	0.00000000000000	0.00000000000000	0.00000000000000	0.00000000000000	0.00000000000000	0.00000000000000	0.00000000000000	28.46947900000000	0.00000000000000	0.00000000000000	0.00000000000000	0.00000000000000	
22.09158200000000	-42.80892400000000	790.48491400000000	52.11973900000000	0.17842600000000	0.00000000000000	0.10087300000000	0.00000000000000	0.00000000000000	0.00000000000000	0.00000000000000	0.00000000000000	0.00000000000000	0.00000000000000	28.34285700000000	0.00000000000000	0.00000000000000	0.00000000000000	0.00000000000000	
22.09325400000000	-43.27002800000000	788.97069799999997	51.91913500000000	0.17749500000000	0.00000000000000	0.10077700000000	0.00000000000000	0.00000000000000	0.00000000000000	0.00000000000000	0.00000000000000	0.00000000000000	0.00000000000000	28.21484400000000	0.00000000000000	0.00000000000000	0.00000000000000	0.00000000000000	
22.09492000000000	-43.75066700000000	787.34744300000000	51.70311200000000	0.17654200000000	0.00000000000000	0.10068000000000	0.00000000000000	0.00000000000000	0.00000000000000	0.00000000000000	0.00000000000000	0.00000000000000	0.00000000000000	28.08550100000000	0.00000000000000	0.00000000000000	0.00000000000000	0.00000000000000	
22.09658500000000	-44.25086500000000	785.61267399999997	51.47131400000000	0.17557000000000	0.00000000000000	0.10058200000000	-1.44470800000000	3.52772700000000	0.59570200000000	0.00000000000000	0.00000000000000	0.00000000000000	0.00000000000000	27.95488400000000	0.00000000000000	0.00000000000000	0.10702800000000	0.00000000000000	
22.09826100000000	-44.77055400000000	783.76388399999996	51.22341100000000	0.17457700000000	0.00000000000000	0.10048300000000	-2.26321300000000	7.10061500000000	0.95379500000000	0.00000000000000	0.00000000000000	0.00000000000000	0.00000000000000	27.82304000000000	0.00000000000000	0.00000000000000	0.17780300000000	0.00000000000000	
22.09992000000000	-45.30957300000000	781.79853000000003	50.95909000000000	0.17356600000000	0.00000000000000	0.10038400000000	-3.17837800000000	11.45973200000000	1.35863400000000	0.00000000000000	0.00000000000000	0.00000000000000	0.00000000000000	27.69001100000000	0.00000000000000	0.00000000000000	0.25915600000000	0.00000000000000	
22.10158300000000	-45.86766300000000	779.71404199999995	50.67806600000000	0.17253600000000	0.00000000000000	0.10028300000000	-4.15917400000000	16.57075300000000	1.79778500000000	0.00000000000000	0.00000000000000	0.00000000000000	0.00000000000000	27.55583200000000	0.00000000000000	0.00000000000000	0.34898100000000	0.00000000000000	
22.10324600000000	-46.44446600000000	777.50781900000004	50.38007500000000	0.17149000000000	0.00000000000000	0.10018000000000	-5.16763500000000	22.36608400000000	2.25569700000000	0.00000000000000	0.00000000000000	0.00000000000000	0.00000000000000	27.42052800000000	0.00000000000000	0.00000000000000	0.44453600000000	0.00000000000000	
22.10491500000000	-47.03952600000000	775.17723799999999	50.06488300000000	0.17042600000000	0.00000000000000	0.10007700000000	-6.16131700000000	28.75014500000000	2.71470000000000	0.39554400000000	0.00000000000000	-0.09397800000000	0.00000000000000	27.28411700000000	0.00000000000000	0.00000000000000	1.03737600000000	0.00000000000000	
22.10658000000000	-47.65228800000000	772.71965299999999	49.73228300000000	0.16934800000000	0.00000000000000	0.09997200000000	-7.09633200000000	35.60763200000000	3.15627200000000	0.39636100000000	0.00000000000000	-0.09533000000000	0.00000000000000	27.14660700000000	0.00000000000000	0.00000000000000	1.21433300000000	0.00000000000000	
22.10825000000000	-48.28209200000000	770.13240099999996	49.38209600000000	0.16825500000000	0.00000000000000	0.09986600000000	-7.93059300000000	42.81364200000000	3.56240200000000	0.39723100000000	0.00000000000000	-0.09650900000000	0.00000000000000	27.00800000000000	0.00000000000000	0.00000000000000	1.38239500000000	0.00000000000000	
22.10991200000000	-48.92818000000000	767.41280900000004	49.01417300000000	0.16715000000000	0.00000000000000	0.09975900000000	-8.62682200000000	50.24422800000000	3.91687900000000	0.39815200000000	0.00000000000000	-0.09754700000000	0.00000000000000	26.86828400000000	0.00000000000000	0.00000000000000	1.53610000000000	0.00000000000000	
22.11158500000000	-49.58969200000000	764.55819699999995	48.62840000000000	0.16603200000000	0.00000000000000	0.09965000000000	-9.15493500000000	57.78594200000000	4.20632500000000	0.39912300000000	0.00000000000000	-0.09846600000000	0.00000000000000	26.72744100000000	0.00000000000000	0.00000000000000	1.67082500000000	0.00000000000000	
22.11324800000000	-50.26566700000000	761.56588299999999	48.22469400000000	0.16490400000000	0.00000000000000	0.09953900000000	-9.49358700000000	65.34336900000000	4.42089100000000	0.40014100000000	0.00000000000000	-0.09928600000000	0.00000000000000	26.58544000000000	0.00000000000000	0.00000000000000	1.78302000000000	0.00000000000000	
22.11492000000000	-50.95504200000000	758.43319499999996	47.80300400000000	0.16376700000000	0.00000000000000	0.09942600000000	-9.63079800000000	72.84409100000001	4.55456500000000	0.40120500000000	0.00000000000000	-0.10002100000000	0.00000000000000	26.44224100000000	0.00000000000000	0.00000000000000	1.87032700000000	0.00000000000000	
22.11658600000000	-51.65666000000000	755.15747099999999	47.36331800000000	0.16262200000000	0.00000000000000	0.09931200000000	-9.56372600000000	80.24098200000000	4.60512500000000	0.40230900000000	0.00000000000000	-0.10068300000000	0.00000000000000	26.29779400000000	0.00000000000000	0.00000000000000	1.93158100000000	0.00000000000000	
22.11824500000000	-52.36926100000000	751.73607200000004	46.90565700000000	0.16147100000000	0.00000000000000	0.09919600000000	-9.29772900000000	87.51203599999999	4.57378600000000	0.40345200000000	0.00000000000000	-0.10128300000000	0.00000000000000	26.15203600000000	0.00000000000000	0.00000000000000	1.96672000000000	0.00000000000000	
22.11992000000000	-53.09149300000000	748.16638799999998	46.43008000000000	0.16031500000000	0.00000000000000	0.09907800000000	-8.84491200000000	94.65815900000000	4.46462500000000	0.40463000000000	0.00000000000000	-0.10182800000000	0.00000000000000	26.00489500000000	0.00000000000000	0.00000000000000	1.97661400000000	0.00000000000000	
22.12158200000000	-53.82191000000000	744.44584799999996	45.93668300000000	0.15915500000000	0.00000000000000	0.09895800000000	-8.22237200000000	101.69944800000000	4.28387200000000	0.40583900000000	0.00000000000000	-0.10232500000000	0.00000000000000	25.85628600000000	0.00000000000000	0.00000000000000	1.96285400000000	0.00000000000000	
22.12324800000000	-54.55897600000000	740.57192599999996	45.42560000000000	0.15799400000000	0.00000000000000	0.09883600000000	-7.45033100000000	108.67054600000000	4.03914200000000	0.40707600000000	0.00000000000000	-0.10278100000000	0.00000000000000	25.70611400000000	0.00000000000000	0.00000000000000	1.92750800000000	0.00000000000000	
22.12491700000000	-55.30106700000000	736.54215599999998	44.89700400000000	0.15683200000000	0.00000000000000	0.09871200000000	-6.55033900000000	115.61560400000000	3.73868900000000	0.40833700000000	0.00000000000000	-0.10319900000000	0.00000000000000	25.55427400000000	0.00000000000000	0.00000000000000	1.87289000000000	0.00000000000000	
22.12659600000000	-56.04647600000000	732.35413900000003	44.35110800000000	0.15567000000000	0.00000000000000	0.09858600000000	-5.54366800000000	122.58333300000000	3.39073300000000	0.40962000000000	0.00000000000000	-0.10358400000000	0.00000000000000	25.40064600000000	0.00000000000000	0.00000000000000	1.80133800000000	0.00000000000000	
22.12825300000000	-56.79341500000000	728.00555299999996	43.78816300000000	0.15451200000000	0.00000000000000	0.09845800000000	-4.45000700000000	129.62252899999999	3.00290700000000	0.41092100000000	0.00000000000000	-0.10394000000000	0.00000000000000	25.24510500000000	0.00000000000000	0.00000000000000	1.71502800000000	0.00000000000000	
22.12991600000000	-57.54002200000000	723.49416900000006	43.20845800000000	0.15335700000000	0.00000000000000	0.09832700000000	-3.28650300000000	136.77833500000000	2.58184000000000	0.41223600000000	0.00000000000000	-0.10426900000000	0.00000000000000	25.08750900000000	0.00000000000000	0.00000000000000	1.61583700000000	0.00000000000000	
22.13158600000000	-58.28436000000000	718.81786199999999	42.61232500000000	0.15220800000000	0.00000000000000	0.09819400000000	-2.06715500000000	144.08940799999999	2.13289400000000	0.41356300000000	0.00000000000000	-0.10457500000000	0.00000000000000	24.92771200000000	0.00000000000000	0.00000000000000	1.50524000000000	0.00000000000000	
22.13324600000000	-59.02443000000000	713.97462199999995	42.00013300000000	0.15106500000000	0.00000000000000	0.09805900000000	-0.80255200000000	151.58603099999999	1.66003600000000	0.41489800000000	0.00000000000000	-0.10485900000000	0.00000000000000	24.76555300000000	0.00000000000000	0.00000000000000	1.38426300000000	0.00000000000000	
22.13492100000000	-59.75816900000000	708.96257100000003	41.37229100000000	0.14993100000000	0.00000000000000	0.09792200000000	0.50008200000000	159.28916500000000	1.16584100000000	0.41623800000000	0.00000000000000	-0.10512400000000	0.00000000000000	24.60086500000000	0.00000000000000	0.00000000000000	1.25347000000000	0.00000000000000	
22.13658600000000	-60.48345800000000	703.77997700000003	40.72924600000000	0.14880700000000	0.00000000000000	0.09778200000000	1.83660200000000	167.21032700000001	0.65160000000000	0.41758100000000	0.00000000000000	-0.10537200000000	0.00000000000000	24.43347100000000	0.00000000000000	0.00000000000000	1.11299500000000	0.00000000000000	
